<svg xmlns="http://www.w3.org/2000/svg" width="1200" height="630" viewBox="0 0 1200 630" fill="none">
  <defs>
    <linearGradient id="bg" x1="0" y1="0" x2="1200" y2="630" gradientUnits="userSpaceOnUse">
      <stop stop-color="#08111f"/>
      <stop offset="1" stop-color="#0f1f3a"/>
    </linearGradient>
    <radialGradient id="glow1" cx="0" cy="0" r="1" gradientUnits="userSpaceOnUse" gradientTransform="translate(220 120) rotate(40) scale(280 220)">
      <stop stop-color="#60A5FA" stop-opacity="0.4"/>
      <stop offset="1" stop-color="#60A5FA" stop-opacity="0"/>
    </radialGradient>
    <radialGradient id="glow2" cx="0" cy="0" r="1" gradientUnits="userSpaceOnUse" gradientTransform="translate(980 100) rotate(35) scale(220 180)">
      <stop stop-color="#6EE7B7" stop-opacity="0.35"/>
      <stop offset="1" stop-color="#6EE7B7" stop-opacity="0"/>
    </radialGradient>
  </defs>

  <rect width="1200" height="630" fill="url(#bg)"/>
  <rect width="1200" height="630" fill="url(#glow1)"/>
  <rect width="1200" height="630" fill="url(#glow2)"/>

  <rect x="66" y="60" width="1068" height="510" rx="28" fill="#0C162B" fill-opacity="0.72" stroke="#24324C"/>

  <text x="96" y="126" fill="#6EE7B7" font-family="Inter, Arial, sans-serif" font-size="22" font-weight="700" letter-spacing="2">PUBLIC-DEMO-SAFE N8N PORTFOLIO PROJECT</text>
  <text x="96" y="220" fill="#E5EEFB" font-family="Inter, Arial, sans-serif" font-size="66" font-weight="800">Public News Digest</text>
  <text x="96" y="286" fill="#E5EEFB" font-family="Inter, Arial, sans-serif" font-size="66" font-weight="800">for n8n</text>

  <text x="96" y="356" fill="#B6C7E3" font-family="Inter, Arial, sans-serif" font-size="28">
    Watches public sources, filters noise, summarizes important updates,
  </text>
  <text x="96" y="396" fill="#B6C7E3" font-family="Inter, Arial, sans-serif" font-size="28">
    and sends a clean daily digest to Telegram, Slack, or email.
  </text>

  <rect x="96" y="452" width="178" height="48" rx="24" fill="#6EE7B7"/>
  <text x="129" y="483" fill="#062317" font-family="Inter, Arial, sans-serif" font-size="22" font-weight="800">Workflow + AI</text>

  <rect x="290" y="452" width="172" height="48" rx="24" fill="#12233E" stroke="#2E456B"/>
  <text x="328" y="483" fill="#E5EEFB" font-family="Inter, Arial, sans-serif" font-size="22" font-weight="700">Public-safe</text>

  <rect x="768" y="130" width="286" height="312" rx="24" fill="#08111F" stroke="#20324E"/>
  <rect x="796" y="168" width="230" height="18" rx="9" fill="#1B2D49"/>
  <rect x="796" y="206" width="194" height="12" rx="6" fill="#6EE7B7" fill-opacity="0.9"/>
  <rect x="796" y="236" width="220" height="12" rx="6" fill="#93C5FD" fill-opacity="0.92"/>
  <rect x="796" y="266" width="170" height="12" rx="6" fill="#FCD34D" fill-opacity="0.92"/>
  <rect x="796" y="316" width="232" height="1" fill="#223754"/>
  <rect x="796" y="342" width="228" height="10" rx="5" fill="#D7E3F7" fill-opacity="0.92"/>
  <rect x="796" y="366" width="198" height="10" rx="5" fill="#91A7C8" fill-opacity="0.85"/>
  <rect x="796" y="390" width="215" height="10" rx="5" fill="#91A7C8" fill-opacity="0.85"/>

  <text x="799" y="465" fill="#8FA3C3" font-family="Inter, Arial, sans-serif" font-size="18">Sample digest preview</text>
</svg>
